<?xml version="1.0" standalone="no"?>
<!DOCTYPE svg PUBLIC "-//W3C//DTD SVG 20010904//EN"
 "http://www.w3.org/TR/2001/REC-SVG-20010904/DTD/svg10.dtd">
<svg version="1.0" xmlns="http://www.w3.org/2000/svg"
 width="48.000000pt" height="48.000000pt" viewBox="0 0 48.000000 48.000000"
 preserveAspectRatio="xMidYMid meet">

<g transform="translate(0.000000,48.000000) scale(0.100000,-0.100000)"
fill="#000000" stroke="none">
<path d="M40 382 c0 -11 35 -39 100 -80 l100 -62 100 62 c150 94 146 98 -100
98 -184 0 -200 -1 -200 -18z"/>
<path d="M40 200 l0 -120 200 0 200 0 0 120 c0 66 -2 120 -4 120 -3 0 -48 -27
-100 -60 l-96 -60 -96 60 c-52 33 -97 60 -100 60 -2 0 -4 -54 -4 -120z"/>
</g>
</svg>
