<?xml version="1.0" standalone="no"?>
<!DOCTYPE svg PUBLIC "-//W3C//DTD SVG 20010904//EN"
 "http://www.w3.org/TR/2001/REC-SVG-20010904/DTD/svg10.dtd">
<svg version="1.0" xmlns="http://www.w3.org/2000/svg"
 width="30.000000pt" height="30.000000pt" viewBox="0 0 30.000000 30.000000"
 preserveAspectRatio="xMidYMid meet">

<g transform="translate(0.000000,30.000000) scale(0.100000,-0.100000)"
fill="#000000" stroke="none">
<path d="M98 264 c-30 -16 -58 -61 -58 -94 0 -31 18 -61 60 -100 20 -19 40
-42 43 -50 6 -13 8 -13 14 0 3 8 23 31 43 50 62 58 73 96 45 150 -28 54 -94
74 -147 44z m75 -58 c22 -17 24 -76 2 -76 -8 0 -15 7 -15 15 0 8 -4 15 -10 15
-5 0 -10 -7 -10 -15 0 -8 -7 -15 -15 -15 -21 0 -20 48 2 72 19 21 22 22 46 4z"/>
</g>
</svg>
