<?xml version="1.0" standalone="no"?>
<!DOCTYPE svg PUBLIC "-//W3C//DTD SVG 20010904//EN"
 "http://www.w3.org/TR/2001/REC-SVG-20010904/DTD/svg10.dtd">
<svg version="1.0" xmlns="http://www.w3.org/2000/svg"
 width="48.000000pt" height="48.000000pt" viewBox="0 0 48.000000 48.000000"
 preserveAspectRatio="xMidYMid meet">

<g transform="translate(0.000000,48.000000) scale(0.100000,-0.100000)"
fill="#000000" stroke="none">
<path d="M172 429 c-45 -14 -105 -76 -120 -125 -15 -51 -14 -88 2 -134 11 -29
10 -42 -2 -78 -8 -24 -12 -45 -9 -48 3 -3 25 0 48 6 34 9 56 9 97 -1 91 -22
176 12 224 89 33 53 33 152 -1 205 -47 76 -151 113 -239 86z m25 -122 c7 -15
8 -29 1 -40 -7 -13 -2 -24 21 -47 33 -34 43 -36 61 -16 9 12 17 13 36 4 54
-25 10 -74 -51 -57 -82 24 -153 127 -113 167 18 18 34 14 45 -11z"/>
</g>
</svg>
